#!OML:ASF F:\VICON\USERDATA\INSTALL\rory3\rory3.ASF
:FULLY-SPECIFIED
:DEGREES
877
root 7.25772 18.622 -2.36813 188.049 -77.4225 -180.551
lowerback 12.1495 -1.74777 -4.82006
upperback 4.9905 -3.23882 -3.29379
thorax -1.50823 -1.76315 -0.288897
lowerneck -8.94939 3.23861 -5.6495
upperneck 24.0135 4.78971 0.269704
head 8.83148 1.49714 1.48215
rclavicle 1.11319e-014 -3.49861e-014
rhumerus -9.27252 1.8551 -72.2165
rradius 119.105
rwrist -48.6368
rhand -40.9161 -6.5676
rfingers 7.12502
rthumb -13.8508 323.914
lclavicle 1.11319e-014 -3.49861e-014
lhumerus 6.22454 -33.114 92.4761
lradius 39.221
lwrist 1.9572
lhand -29.9932 21.7838
lfingers 7.12502
lthumb -3.31091 51.7379
rfemur -26.7287 19.6838 2.19909
rtibia 22.3852
rfoot -10.8497 -16.7743
rtoes -2.79441
lfemur -12.9162 2.52326 -15.8273
ltibia 26.1629
lfoot -16.7142 11.9834
ltoes -13.8858
878
root 7.31934 18.6127 -2.33084 189.043 -76.6026 -181.51
lowerback 12.2022 -1.41503 -5.16257
upperback 5.00591 -2.8532 -3.34947
thorax -1.51674 -1.57894 -0.20377
lowerneck -9.1035 3.31513 -5.43096
upperneck 23.8547 4.94266 0.0021309
head 8.81517 1.57047 1.37204
rclavicle -5.80451e-014 -4.13472e-014
rhumerus -9.34962 2.08409 -72.6974
rradius 118.647
rwrist -48.9467
rhand -41 -6.06594
rfingers 7.12502
rthumb -13.9316 324.421
lclavicle -5.80451e-014 -4.13472e-014
lhumerus 5.61944 -33.4837 91.5951
lradius 40.5374
lwrist 3.15001
lhand -31.2541 23.5146
lfingers 7.12502
lthumb -4.52849 53.4462
rfemur -27.251 19.2682 2.01949
rtibia 23.0945
rfoot -11.0223 -15.9838
rtoes -3.7822
lfemur -13.3705 2.89186 -16.2934
ltibia 26.7044
lfoot -16.8373 12.4874
ltoes -14.1183
879
root 7.37926 18.6029 -2.29949 190.3 -75.814 -182.573
lowerback 12.0159 -1.13291 -5.54109
upperback 5.00453 -2.51711 -3.41368
thorax -1.4133 -1.4205 -0.108879
lowerneck -9.20569 3.4045 -5.3624
upperneck 23.6433 5.0965 -0.0967037
head 8.76211 1.65109 1.34214
rclavicle -2.14687e-014 -3.65764e-014
rhumerus -9.34322 2.66447 -73.2301
rradius 118.116
rwrist -48.6616
rhand -41.5585 -5.14409
rfingers 7.12502
rthumb -14.4698 325.38
lclavicle -2.14687e-014 -3.65764e-014
lhumerus 5.02159 -33.5189 90.7425
lradius 41.7139
lwrist 3.92166
lhand -31.6046 24.3903
lfingers 7.12502
lthumb -4.86695 54.3144
rfemur -27.925 18.6428 1.84858
rtibia 23.9242
rfoot -11.1127 -14.971
rtoes -3.67643
lfemur -14.0561 3.28666 -16.7845
ltibia 27.3023
lfoot -16.9588 12.8717
ltoes -14.3591
880
root 7.43845 18.592 -2.26992 189.261 -75.1344 -181.107
lowerback 11.673 -0.883115 -5.25475
upperback 4.9776 -2.11965 -3.31051
thorax -1.27696 -1.21981 -0.219451
lowerneck -9.29073 3.41363 -5.30651
upperneck 23.4321 5.14091 -0.202141
head 8.70935 1.67895 1.3014
rclavicle 3.4191e-014 3.49861e-014
rhumerus -9.60815 3.15265 -73.6394
rradius 117.688
rwrist -48.6097
rhand -41.9158 -4.01056
rfingers 7.12502
rthumb -14.8141 326.539
lclavicle 3.4191e-014 3.49861e-014
lhumerus 4.45667 -33.5459 89.9814
lradius 42.7261
lwrist 4.39607
lhand -30.856 24.0221
lfingers 7.12502
lthumb -4.14404 53.9615
rfemur -28.764 17.8618 2.47723
rtibia 24.9147
rfoot -11.1007 -13.9899
rtoes -3.25646
lfemur -14.9118 3.9018 -16.564
ltibia 27.8186
lfoot -16.8749 13.0853
ltoes -14.9573
881
root 7.49992 18.5844 -2.23951 188.608 -74.3865 -180.192
lowerback 11.5396 -0.65377 -5.02109
upperback 4.96002 -1.78221 -3.31224
thorax -1.24186 -1.04945 -0.395271
lowerneck -9.32784 3.49193 -5.1231
upperneck 23.1556 5.26039 -0.339123
head 8.62762 1.75255 1.23432
rclavicle 1.98785e-014 -5.40694e-014
rhumerus -10.0007 3.68732 -74.1515
rradius 117.346
rwrist -48.7849
rhand -41.7771 -2.86583
rfingers 7.12502
rthumb -14.6804 327.674
lclavicle 1.98785e-014 -5.40694e-014
lhumerus 3.71012 -33.1668 89.4021
lradius 43.564
lwrist 4.3473
lhand -29.4078 23.1056
lfingers 7.12502
lthumb -2.74555 53.0677
rfemur -29.4571 17.4471 2.91663
rtibia 26.0107
rfoot -11.6179 -13.1846
rtoes -1.25068
lfemur -15.5565 4.43314 -16.4673
ltibia 28.2529
lfoot -16.8549 13.3848
ltoes -15.2573
882
root 7.55587 18.5812 -2.20907 189.07 -73.5026 -180.819
lowerback 11.7182 0.0453587 -4.80428
upperback 5.19492 -0.894488 -3.89059
thorax -1.13179 -0.622039 -1.22777
lowerneck -9.64498 3.18216 -3.74396
upperneck 22.9639 4.66699 -0.494247
head 8.66973 1.59696 0.90268
rclavicle -6.99722e-014 -3.18055e-015
rhumerus -10.5455 2.85753 -75.1779
rradius 117.261
rwrist -48.611
rhand -41.5344 -2.68853
rfingers 7.12502
rthumb -14.4466 327.834
lclavicle -6.99722e-014 -3.18055e-015
lhumerus 3.45253 -34.3603 88.3279
lradius 44.2278
lwrist 4.42277
lhand -28.4578 22.3256
lfingers 7.12502
lthumb -1.82806 52.2975
rfemur -29.7152 17.2074 2.97464
rtibia 27.1188
rfoot -12.1357 -12.4328
rtoes 0.874553
lfemur -15.699 4.86762 -16.8226
ltibia 28.6955
lfoot -16.9866 13.7571
ltoes -15.1775
883
root 7.6086 18.577 -2.18451 189.453 -72.6105 -181.514
lowerback 12.0745 0.564925 -5.0718
upperback 5.31413 -0.292916 -4.07749
thorax -1.20661 -0.336598 -1.34941
lowerneck -9.62886 3.10353 -3.20282
upperneck 22.706 4.50574 -0.651504
head 8.59755 1.5662 0.74204
rclavicle -6.20208e-014 3.18055e-014
rhumerus -10.7109 3.11134 -75.9951
rradius 117.153
rwrist -48.4284
rhand -41.3687 -2.87855
rfingers 7.12502
rthumb -14.2869 327.633
lclavicle -6.20208e-014 3.18055e-014
lhumerus 2.87164 -34.5191 87.6846
lradius 44.8614
lwrist 4.4993
lhand -28.9954 22.7078
lfingers 7.12502
lthumb -2.34731 52.6747
rfemur -29.8864 16.7436 3.17934
rtibia 28.2403
rfoot -12.2346 -11.869
rtoes 1.3918
lfemur -15.6466 5.45723 -17.186
ltibia 29.1125
lfoot -17.1288 13.9634
ltoes -14.9814
884
root 7.66593 18.5648 -2.16779 188.867 -71.9177 -180.87
lowerback 12.2129 0.832951 -5.12399
upperback 5.28322 0.0443444 -3.96419
thorax -1.31813 -0.168695 -1.24645
lowerneck -9.52959 3.16656 -3.11632
upperneck 22.473 4.60923 -0.799639
head 8.50494 1.61713 0.684518
rclavicle -5.08889e-014 -3.81667e-014
rhumerus -10.7871 4.053 -76.6975
rradius 116.928
rwrist -48.2063
rhand -41.2973 -3.15631
rfingers 7.12502
rthumb -14.2181 327.35
lclavicle -5.08889e-014 -3.81667e-014
lhumerus 2.16989 -34.0942 87.0752
lradius 45.4531
lwrist 4.64759
lhand -31.0781 24.4689
lfingers 7.12502
lthumb -4.35857 54.4041
rfemur -30.3025 16.042 3.93515
rtibia 29.3444
rfoot -12.1674 -11.7324
rtoes 0.157041
lfemur -16.008 6.0734 -17.0606
ltibia 29.5321
lfoot -17.2082 13.9886
ltoes -14.7065
885
root 7.72147 18.5443 -2.14984 188.99 -71.2643 -180.997
lowerback 12.346 1.07586 -5.21243
upperback 5.30205 0.337924 -3.94548
thorax -1.37516 -0.0264149 -1.21775
lowerneck -9.44777 3.203 -3.17171
upperneck 22.2036 4.67882 -0.833971
head 8.3975 1.65399 0.685313
rclavicle 7.95139e-015 -4.13472e-014
rhumerus -10.9245 4.97772 -77.2616
rradius 116.687
rwrist -48.0971
rhand -41.2246 -3.05141
rfingers 7.12502
rthumb -14.148 327.45
lclavicle 7.95139e-015 -4.13472e-014
lhumerus 1.55143 -33.5933 86.5089
lradius 45.8983
lwrist 4.67456
lhand -29.8227 23.007
lfingers 7.12502
lthumb -3.14625 52.9635
rfemur -30.4327 15.2143 4.54559
rtibia 30.405
rfoot -12.105 -11.5031
rtoes -1.5575
lfemur -16.3684 6.45344 -17.1933
ltibia 30.0056
lfoot -17.3382 14.1736
ltoes -14.5633
